<svg xmlns="http://www.w3.org/2000/svg" viewBox="0 0 150 150"><defs><style>.cls-1{fill:none;stroke:#000;stroke-miterlimit:10;stroke-width:3px;}</style></defs><g id="Layer_2" data-name="Layer 2"><g id="Layer_2-2" data-name="Layer 2"><path class="cls-1" d="M43.2,106.47c1.72-4,3.26-7.47,4.8-11q5.8-13.29,11.62-26.57a17.14,17.14,0,0,1,9.17-9.22L105,44.12c.39-.17.81-.29,1.64-.58-.53,1.37-.9,2.42-1.34,3.44Q97.82,64,90.36,81a17.16,17.16,0,0,1-9.19,9.21L44.85,105.87C44.46,106,44.05,106.16,43.2,106.47Zm32-37.5A6,6,0,0,0,69,74.84a6,6,0,0,0,12,.28A5.93,5.93,0,0,0,75.15,69Z"/><path d="M75,0a75,75,0,1,0,75,75A75,75,0,0,0,75,0Zm0,147a72,72,0,1,1,72-72A72.08,72.08,0,0,1,75,147Z"/><line class="cls-1" x1="75" y1="3" x2="75" y2="11"/><line class="cls-1" x1="147.25" y1="74.75" x2="139.25" y2="74.75"/><line class="cls-1" x1="74.5" y1="148" x2="74.5" y2="140"/><line class="cls-1" x1="3.25" y1="74.25" x2="11.25" y2="74.25"/></g></g></svg>