<svg xmlns="http://www.w3.org/2000/svg" viewBox="0 0 95.79 18.58"><g data-name="レイヤー 2"><path d="M7.09 4.77H4.84V2H2.25v14.58h2.59v-3.13h2.25v3.86l-1.22 1.26H1.22L0 17.31v-16L1.22 0h4.65l1.22 1.27zm14.28-3.5v16l-1.22 1.26h-4.64l-1.22-1.26v-16L15.51 0h4.65zM19.12 2h-2.58v14.58h2.59zm17.81-2v18.58h-2.25V7.22l-.8 2.58-1.13 3.61-1.12-3.61-.8-2.58v11.36h-2.26V0h2.25l1.93 6.19L34.68 0zm14.28 1.27v7l-4.84 4.9v5.41h-2.25V0H50zM49 2h-2.63v8.37L49 7.73zm17.3 16.57h-2.25l-.88-7.4L61 13.42l-.6 5.16h-2.28L60.3 0h3.8zm-3.42-9.9L62.2 3l-.85 7.26zM80.28 0v18.57H78l-2.55-9.92v9.93h-2.26V0h2.25L78 9.93V0zm15.51 0l-3 9.29v9.29h-2.28V9.29L87.48 0h2.25l1.9 5.84L93.54 0z" fill="#3bbf00" data-name="レイヤー 1"/></g></svg>