<svg xmlns="http://www.w3.org/2000/svg" viewBox="0 0 91.75 18.58"><g data-name="レイヤー 2"><path d="M7.09 4.77H4.84V2H2.25v14.58h2.59v-3.13h2.25v3.86l-1.22 1.26H1.22L0 17.31v-16L1.22 0h4.65l1.22 1.27zm14.28-3.5v16l-1.22 1.26h-4.64l-1.22-1.26v-16L15.51 0h4.65zM19.12 2h-2.58v14.58h2.59zm16.54-2v18.57h-2.25l-2.59-9.92v9.93h-2.25V0h2.25l2.59 9.93V0zM45 1.75h-2.14L43.1 0h5.83l.24 1.75H47v16.83h-2zm19.26 16.82H62l-.88-7.4-2.2 2.24-.6 5.16h-2.24L58.26 0h3.8zm-3.42-9.9L60.16 3l-.85 7.26zm17.4-3.9H76V2h-2.6v14.58H76v-3.13h2.25v3.86L77 18.57h-4.63l-1.22-1.26v-16L72.37 0H77l1.22 1.27zm9.35-3.02h-2.15L85.68 0h5.83l.24 1.75H89.6v16.83h-2z" fill="#fff" data-name="レイヤー 1"/></g></svg>