<svg xmlns="http://www.w3.org/2000/svg" viewBox="0 0 169.23 18.57"><g data-name="レイヤー 2"><path d="M7.09 0v18.57H4.84L2.25 8.64v9.93H0V0h2.25l2.59 9.93V0zm9.45 16.58H20l-.24 2h-5.47V0h5.43L20 2h-3.46v6.29h2.82v2h-2.82zM41 0l-2.2 18.57H35L33.91 8.42l-1.07 10.15H29L26.86 0h2.25l1.83 15.6L32.79 0H35l1.83 15.6L38.72 0zm8.09 18.57l-1.22-1.26v-3.19h2v2.73h2.4v-3.63l-4-7.1a2.9 2.9 0 0 1-.38-1.33V1.27L49.09 0H53l1.22 1.27v3.18h-2V1.72h-2.4V5l4 7.1a2.67 2.67 0 0 1 .35 1.3v3.92L53 18.57zm29.16-3.49l1.55 3.49h-2.25l-.35-.79-1.13.79h-3.76l-1.22-1.26V11.4a1.3 1.3 0 0 1 .13-.57l1.52-3.09-.89-2a1.31 1.31 0 0 1-.11-.53V1.27L73 0h4.49l1.22 1.27v3.44h-2.29V2H74v3.47l3.06 6.9L78 10h2.25zm-2.25 0l-2.19-4.93-.47 1v5.48h2.07zM99.21 1.75h-2.15L97.3 0h5.83l.24 1.75h-2.15v16.82h-2zm18.44-.48v16l-1.22 1.26h-4.65l-1.22-1.26v-16L111.78 0h4.65zM115.4 2h-2.59v14.58h2.59zm16.54-.73v7l-4.84 4.9v5.41h-2.25V0h5.87zm-2.26.73h-2.58v8.37l2.59-2.64zm9.45 16.57V0h2.25v18.57zm16.53-13.81h-2.25V2h-2.59v14.58h2.59v-3.13h2.25v3.86l-1.22 1.26h-4.65l-1.22-1.26v-16L149.79 0h4.65l1.22 1.27zm8.42 13.81l-1.22-1.26v-3.19h2v2.73h2.4v-3.63l-4-7.1a2.9 2.9 0 0 1-.38-1.33V1.27l1.2-1.27H168l1.22 1.27v3.18h-2V1.72h-2.4V5l4 7.1a2.67 2.67 0 0 1 .35 1.3v3.92L168 18.57z" fill="#3bbf00" data-name="レイヤー 1"/></g></svg>